<?xml version="1.0" encoding="UTF-8"?>
<svg id="Layer_1" data-name="Layer 1" xmlns="http://www.w3.org/2000/svg" width="1000" height="200.9123" viewBox="0 0 1000 200.9123">
  <g>
    <g>
      <g>
        <path d="M213.2022,200.9123c-10.6372,0-19.8257-2.1662-27.5638-6.4956-7.7409-4.3287-13.9055-10.9111-18.4956-19.7516-4.594-8.8361-7.6374-20.1496-9.1326-33.9359l-8.1232-75.5612h42.0496l6.7247,67.8725c.7475,6.8928,2.1497,12.4609,4.2048,16.7028,2.0551,4.2419,4.6926,7.3363,7.9208,9.2797,3.2227,1.947,6.8834,3.0069,10.9822,3.1812,7.9783,0,13.7585-2.2537,17.3496-6.7604,3.5881-4.5074,4.8941-11.2678,3.9164-20.2827l-7.591-69.9931h41.485l14.3769,132.5631h-39.0916l-3.4353-16.9683c-3.5654,6.3632-8.3921,11.3134-14.4791,14.847-6.0899,3.5343-13.1195,5.3026-21.0977,5.3026Z" style="fill: #fff;"/>
        <path d="M453.5995,200.9123c-14.1844,0-27.1378-2.962-38.8567-8.8817-11.7248-5.9197-21.2585-14.1387-28.6023-24.6563-7.3479-10.5139-11.7469-22.4901-13.2039-35.9248-1.4759-13.6083.3209-25.6264,5.3972-36.0572,5.0723-10.4271,12.7411-18.6005,23.0015-24.5239,10.2608-5.9197,22.4802-8.8817,36.6661-8.8817,13.6503,0,26.5219,3.446,38.6179,10.3396,12.0901,6.8935,21.3301,16.8808,27.7137,29.9595l-37.9196,13.256c-2.4122-4.2419-6.0234-7.7299-10.8419-10.4727-4.818-2.7377-9.9777-4.1095-15.4712-4.1095-5.4964,0-10.1895,1.2843-14.0758,3.8447-3.8889,2.5641-6.7793,6.1433-8.6744,10.7375-1.8946,4.5986-2.5162,9.9012-1.8648,15.9077.6519,6.0109,2.4187,11.2678,5.3009,15.7753,2.8821,4.5067,6.636,8.0859,11.269,10.7375,4.63,2.6509,9.6933,3.9771,15.1912,3.9771,5.492,0,10.3054-1.413,14.4311-4.2426,4.1232-2.8252,7.0037-6.5368,8.6313-11.1347l40.7963,13.256c-3.7076,13.256-10.8032,23.422-21.2922,30.4891-10.493,7.0715-22.5633,10.6051-36.2136,10.6051Z" style="fill: #fff;"/>
        <path d="M532.7657,197.7311l-14.3769-132.5631h41.485l2.6741,24.657c4.5912-8.3058,10.9164-14.5822,18.9658-18.8241,8.0494-4.2419,16.5044-6.3632,25.371-6.3632l4.3706,40.2991c-8.1568,0-15.7261.8863-22.7147,2.6516-6.9882,1.769-12.5049,4.4655-16.5419,8.0859-4.0394,3.6248-5.751,8.2646-5.1377,13.9195l7.3897,68.1373h-41.485Z" style="fill: #fff;"/>
        <path d="M685.7514,200.9123c-10.6372,0-19.8257-2.1662-27.5638-6.4956-7.7409-4.3287-13.9055-10.9111-18.4956-19.7516-4.594-8.8361-7.6374-20.1496-9.1326-33.9359l-8.1949-75.5612h41.485l7.361,67.8725c.7475,6.8928,2.1497,12.4609,4.2048,16.7028,2.0551,4.2419,4.6926,7.3363,7.9208,9.2797,3.2227,1.947,6.8834,3.0069,10.9822,3.1812,7.9783,0,13.7585-2.2537,17.3496-6.7604,3.5881-4.5074,4.8941-11.2678,3.9164-20.2827l-7.591-69.9931h41.485l14.3769,132.5631h-39.0916l-3.4353-16.9683c-3.5654,6.3632-8.3921,11.3134-14.4791,14.847-6.0899,3.5343-13.1195,5.3026-21.0977,5.3026Z" style="fill: #fff;"/>
        <path d="M790.9802,197.7311l-14.3769-132.5631h39.0916l3.4065,16.7028c3.5465-6.5368,8.2818-11.487,14.2121-14.847,5.9278-3.3556,12.7041-5.037,20.3297-5.037,10.9899,0,20.3221,2.253,27.9909,6.7604,7.6688,4.5074,13.684,11.359,18.0507,20.5475,3.1186-8.8361,7.9688-15.5973,14.5536-20.2827,6.5808-4.681,14.3049-7.0252,23.1714-7.0252,15.9565,0,28.492,4.8634,37.6157,14.5815,9.1198,9.7232,14.7014,24.835,16.7508,45.3369l8.2236,75.826h-41.485l-7.361-67.8725c-.7665-7.0671-2.1321-12.6801-4.0864-16.8352-1.9582-4.1507-4.4624-7.2003-7.5081-9.1473-3.0482-1.9426-6.5333-3.0032-10.4495-3.1812-7.643-.1743-13.2133,1.9882-16.7143,6.4956-3.4996,4.5074-4.7514,11.359-3.7549,20.5475l7.591,69.9931h-41.485l-7.361-67.8725c-.7665-7.0671-2.1307-12.6801-4.0864-16.8352-1.9582-4.1507-4.4624-7.2003-7.5066-9.1473-3.0482-1.9426-6.5333-3.0032-10.451-3.1812-7.643-.1743-13.2133,1.9882-16.7129,6.4956-3.501,4.5074-4.7514,11.359-3.7549,20.5475l7.591,69.9931h-41.485Z" style="fill: #fff;"/>
      </g>
      <g>
        <g>
          <polygon points="131.9671 51.2621 4.4529 51.2742 0 12.1424 127.5142 12.1304 131.9671 51.2621" style="fill: #fff;"/>
          <polygon points="108.8742 125.7275 12.9263 125.738 8.4734 86.6063 104.4214 86.5957 108.8742 125.7275" style="fill: #fff;"/>
          <polygon points="68.6762 197.2243 21.0613 197.2285 16.6084 158.0968 64.2233 158.0925 68.6762 197.2243" style="fill: #fff;"/>
        </g>
        <polygon points="187.0347 12.136 189.6095 31.7023 144.7073 18.0694 144.0633 12.1314 187.0347 12.136" style="fill: #fff;"/>
      </g>
    </g>
    <path d="M318.4309,197.7311l-20.1277-185.5887h41.485l20.1277,185.5887h-41.485Z" style="fill: #fff;"/>
  </g>
  <polygon points="68.6762 197.2243 21.0613 197.2285 16.6084 158.0968 64.2233 158.0925 68.6762 197.2243" style="fill: #fff;"/>
  <g>
    <path d="M390.7169,40.1771l-11.5714-27.4652h8.1939l9.6261,23.6364h-4.0953l10.0353-23.6364h7.6304l-11.6251,27.4652h-8.1939Z" style="fill: #fff;"/>
    <path d="M441.9799,40.585c-3.1427,0-5.8897-.6119-8.2442-1.8375-2.3579-1.2255-4.1825-2.9008-5.4805-5.0292-1.298-2.1251-1.9453-4.5511-1.9453-7.2747,0-2.7219.6205-5.1563,1.8682-7.2998,1.2443-2.1434,2.9884-3.8204,5.2222-5.0292,2.2371-1.2072,4.7527-1.8124,7.5533-1.8124,2.6966,0,5.1283.5802,7.2984,1.7372,2.1667,1.157,3.8806,2.7905,5.1451,4.9005,1.2611,2.11,1.895,4.6447,1.895,7.6057,0,.3076-.0168.6571-.0503,1.0466-.0369.3929-.0704.7591-.104,1.0985h-22.3781v-4.6464h18.1788l-3.1226,1.3794c.0335-1.4295-.2381-2.6718-.8184-3.7268-.5836-1.055-1.3852-1.8809-2.4082-2.4762s-2.2204-.8945-3.5855-.8945-2.5692.2993-3.6089.8945c-1.0397.5952-1.8514,1.4295-2.4317,2.5012-.5802,1.0717-.872,2.3407-.872,3.8037v1.2255c0,1.5315.3421,2.8574,1.0263,3.9809.6809,1.1236,1.62,1.9829,2.814,2.5782,1.1974.5969,2.6296.8945,4.3032.8945,1.4322,0,2.7033-.2224,3.8135-.6638,1.1102-.4431,2.1265-1.1068,3.0488-1.9913l4.2496,4.5945c-1.2645,1.4295-2.8509,2.5263-4.7627,3.2921-1.9118.7658-4.1154,1.1486-6.6041,1.1486Z" style="fill: #fff;"/>
    <path d="M492.6191,12.3022c2.1835,0,4.1389.4347,5.8628,1.3025,1.7206.8677,3.079,2.1953,4.0684,3.9826.9894,1.7856,1.4858,4.0762,1.4858,6.8667v15.7231h-7.9893v-14.4992c0-2.212-.4863-3.8455-1.459-4.9005-.9727-1.055-2.3478-1.5817-4.1221-1.5817-1.2611,0-2.3981.2725-3.4043.8159-1.0062.5451-1.7911,1.3443-2.3545,2.3993-.5635,1.055-.8452,2.4511-.8452,4.1866v13.5796h-7.9893V12.7119h7.6304v7.6057l-1.4322-2.2973c.9894-1.8375,2.4048-3.2486,4.2496-4.2367,1.8414-.9865,3.941-1.4814,6.2989-1.4814Z" style="fill: #fff;"/>
    <path d="M523.238,19.4499v-6.126h19.1012v6.126h-19.1012ZM537.7811,40.585c-3.2433,0-5.7689-.8243-7.5801-2.4762-1.8078-1.6502-2.7134-4.1097-2.7134-7.3767V6.636h8.0396v23.9441c0,1.157.2985,2.0582.8955,2.7052s1.4087.9697,2.435.9697c1.2947,0,2.3881-.3394,3.2769-1.0216l2.0996,5.6161c-.7882.5785-1.7508,1.0132-2.8945,1.3025-1.1437.2876-2.3311.433-3.5586.433Z" style="fill: #fff;"/>
    <path d="M575.6716,40.585c-2.321,0-4.3703-.4414-6.1446-1.3275-1.7776-.8845-3.1595-2.2454-4.1489-4.0829-.9894-1.8392-1.4858-4.1531-1.4858-6.9436v-15.5191h7.9893v14.2935c0,2.3157.4863,4.0077,1.459,5.0794.9727,1.0734,2.3478,1.6084,4.1221,1.6084,1.2309,0,2.321-.2725,3.2769-.8159.9559-.5451,1.7173-1.361,2.2807-2.4511.5635-1.0884.8452-2.4511.8452-4.0846v-13.6298h7.9356v27.4652h-7.5801v-7.6074l1.3852,2.2471c-.9559,1.906-2.3243,3.3439-4.0986,4.3136-1.7743.9697-3.7196,1.4546-5.836,1.4546Z" style="fill: #fff;"/>
    <path d="M614.4844,40.1771V12.7119h7.6304v7.8097l-1.0766-2.2973c.8217-1.9395,2.1332-3.4108,3.9443-4.4156,1.8078-1.0032,4.0114-1.5064,6.6041-1.5064v7.4034c-.3052-.0686-.6037-.1187-.8955-.1538-.2884-.0334-.5702-.0502-.8452-.0502-2.2506,0-4.045.6303-5.3765,1.8876-1.3316,1.2607-1.9956,3.2001-1.9956,5.8201v12.9677h-7.9893Z" style="fill: #fff;"/>
    <path d="M665.0263,40.585c-3.1427,0-5.8897-.6119-8.2442-1.8375-2.3579-1.2255-4.1825-2.9008-5.4805-5.0292-1.298-2.1251-1.9453-4.5511-1.9453-7.2747,0-2.7219.6205-5.1563,1.8682-7.2998,1.2443-2.1434,2.9884-3.8204,5.2222-5.0292,2.2371-1.2072,4.7527-1.8124,7.5533-1.8124,2.6966,0,5.1283.5802,7.2984,1.7372,2.1667,1.157,3.8806,2.7905,5.1451,4.9005,1.2611,2.11,1.895,4.6447,1.895,7.6057,0,.3076-.0168.6571-.0503,1.0466-.0369.3929-.0704.7591-.104,1.0985h-22.3781v-4.6464h18.1788l-3.1226,1.3794c.0335-1.4295-.2381-2.6718-.8184-3.7268-.5836-1.055-1.3852-1.8809-2.4082-2.4762-1.023-.5952-2.2204-.8945-3.5855-.8945s-2.5692.2993-3.6089.8945-1.8514,1.4295-2.4317,2.5012c-.5802,1.0717-.872,2.3407-.872,3.8037v1.2255c0,1.5315.3421,2.8574,1.0263,3.9809.6809,1.1236,1.62,1.9829,2.814,2.5782,1.1974.5969,2.6296.8945,4.3032.8945,1.4322,0,2.7033-.2224,3.8135-.6638,1.1102-.4431,2.1265-1.1068,3.0488-1.9913l4.2496,4.5945c-1.2645,1.4295-2.8509,2.5263-4.7627,3.2921-1.9118.7658-4.1154,1.1486-6.6041,1.1486Z" style="fill: #fff;"/>
    <path d="M737.9396,40.585c-2.3579,0-4.6084-.2809-6.7617-.8427-2.1499-.5601-3.8739-1.2673-5.1719-2.1184l2.6128-5.6663c1.298.749,2.8073,1.371,4.5313,1.8642,1.724.4932,3.4211.739,5.0948.739,1.8447,0,3.1494-.2207,3.9175-.6638.7681-.4414,1.1538-1.0533,1.1538-1.8375,0-.6454-.3019-1.1302-.8989-1.4546-.597-.3227-1.3819-.5701-2.3545-.7407-.9727-.1689-2.056-.3394-3.2501-.5099-1.1974-.1705-2.3814-.408-3.5586-.7156-1.1806-.306-2.2707-.739-3.2769-1.3008-1.0096-.5618-1.8112-1.3359-2.4082-2.324-.597-.9865-.8955-2.2622-.8955-3.8288,0-1.7355.5098-3.2754,1.5361-4.6196,1.023-1.3443,2.4753-2.3909,4.3535-3.1399,1.8749-.7474,4.1456-1.1236,6.8087-1.1236,1.9118,0,3.8303.214,5.7622.6387,1.9252.4263,3.5586,1.0132,4.8902,1.7622l-2.7168,5.6663c-1.298-.749-2.6195-1.2774-3.9678-1.5833-1.3483-.306-2.6363-.4598-3.8638-.4598-1.8447,0-3.1763.2391-3.9947.7156-.8217.4765-1.2309,1.0901-1.2309,1.8375,0,.6822.3086,1.2005.9224,1.5566.6138.3578,1.4154.622,2.4082.7925.9894.1705,2.0795.3394,3.2769.5099,1.194.1705,2.3713.408,3.5318.7156,1.1605.306,2.2438.739,3.2534,1.3008,1.0062.5618,1.8078,1.3359,2.4048,2.3223.597.9881.8955,2.2638.8955,3.8288,0,1.6686-.5098,3.1583-1.5361,4.4675-1.023,1.3108-2.4988,2.3407-4.4273,3.0898-1.9286.7474-4.2764,1.1219-7.0401,1.1219Z" style="fill: #fff;"/>
    <path d="M767.8441,19.4499v-6.126h19.1012v6.126h-19.1012ZM782.3872,40.585c-3.2433,0-5.7689-.8243-7.5801-2.4762-1.8078-1.6502-2.7134-4.1097-2.7134-7.3767V6.636h8.0396v23.9441c0,1.157.2985,2.0582.8955,2.7052.597.647,1.4087.9697,2.435.9697,1.2947,0,2.3881-.3394,3.2769-1.0216l2.0996,5.6161c-.7882.5785-1.7508,1.0132-2.8945,1.3025-1.1437.2876-2.3311.433-3.5586.433Z" style="fill: #fff;"/>
    <path d="M820.2811,40.585c-2.321,0-4.3703-.4414-6.1446-1.3275-1.7776-.8845-3.1595-2.2454-4.1489-4.0829-.9894-1.8392-1.4858-4.1531-1.4858-6.9436v-15.5191h7.9893v14.2935c0,2.3157.4863,4.0077,1.459,5.0794.9727,1.0734,2.3478,1.6084,4.1221,1.6084,1.2309,0,2.321-.2725,3.2769-.8159.9559-.5451,1.7173-1.361,2.2807-2.4511.5635-1.0884.8452-2.4511.8452-4.0846v-13.6298h7.9356v27.4652h-7.5801v-7.6074l1.3852,2.2471c-.9559,1.906-2.3243,3.3439-4.0986,4.3136-1.7743.9697-3.7196,1.4546-5.836,1.4546Z" style="fill: #fff;"/>
    <path d="M870.9202,40.585c-2.596,0-4.9338-.5869-7.0166-1.7606-2.0829-1.1737-3.7196-2.8156-4.9137-4.9273-1.1974-2.11-1.7944-4.5945-1.7944-7.4536s.597-5.3419,1.7944-7.4536c1.194-2.11,2.8308-3.7519,4.9137-4.9256s4.4206-1.7622,7.0166-1.7622c2.321,0,4.3535.5116,6.0943,1.5315,1.7407,1.0216,3.0891,2.5715,4.045,4.6464.9559,2.0766,1.4322,4.7316,1.4322,7.9635,0,3.2001-.4595,5.8552-1.3819,7.9652-.9224,2.11-2.2438,3.6666-3.9678,4.6714-1.724,1.0032-3.8001,1.5048-6.2217,1.5048ZM872.2518,34.051c1.3316,0,2.5256-.2976,3.5855-.8928,1.0565-.5952,1.9017-1.473,2.5323-2.63s.9492-2.518.9492-4.0846c0-1.5984-.3186-2.961-.9492-4.0829-.6306-1.1236-1.4758-1.9829-2.5323-2.5782-1.0599-.5952-2.2539-.8945-3.5855-.8945-1.298,0-2.4753.2993-3.5351.8945-1.0565.5952-1.9017,1.4546-2.5323,2.5782-.6339,1.1219-.9492,2.4845-.9492,4.0829,0,1.5666.3153,2.9276.9492,4.0846.6306,1.157,1.4758,2.0348,2.5323,2.63,1.0599.5952,2.2371.8928,3.5351.8928ZM879.5233,40.1771v-5.6161l.1543-8.1675-.5132-8.1173V2.2973h7.9893v37.8798h-7.6304Z" style="fill: #fff;"/>
    <path d="M913.7814,8.8831c-1.5026,0-2.7134-.4263-3.6358-1.2774-.9224-.8494-1.3819-1.9044-1.3819-3.165,0-1.259.4595-2.314,1.3819-3.165.9224-.8494,2.1332-1.2757,3.6358-1.2757,1.4691,0,2.6698.3996,3.6089,1.1988.9391.8009,1.4087,1.8308,1.4087,3.0898,0,1.3259-.4595,2.4243-1.3819,3.2921-.9224.8677-2.1332,1.3025-3.6358,1.3025ZM909.7867,40.1771V12.7119h7.9893v27.4652h-7.9893Z" style="fill: #fff;"/>
    <path d="M953.5132,40.585c-2.9012,0-5.4872-.6119-7.7579-1.8375-2.2707-1.2255-4.0517-2.9008-5.3497-5.0292-1.298-2.1251-1.9453-4.5511-1.9453-7.2747,0-2.7554.6473-5.1981,1.9453-7.3248,1.298-2.1267,3.079-3.7953,5.3497-5.0042,2.2707-1.2072,4.8566-1.8124,7.7579-1.8124,2.9381,0,5.5476.6052,7.835,1.8124,2.2874,1.2088,4.0785,2.8774,5.3765,5.0042,1.298,2.1267,1.9453,4.5695,1.9453,7.3248,0,2.7571-.6473,5.1914-1.9453,7.3014-1.298,2.11-3.0891,3.7769-5.3765,5.0025-2.2874,1.2255-4.8969,1.8375-7.835,1.8375ZM953.5132,34.051c1.3651,0,2.5692-.2976,3.6123-.8928,1.0397-.5952,1.8749-1.473,2.5088-2.63.6306-1.157.9458-2.518.9458-4.0846,0-1.5984-.3153-2.961-.9458-4.0829-.6339-1.1236-1.4691-1.9829-2.5088-2.5782-1.0431-.5952-2.2271-.8945-3.5586-.8945s-2.5289.2993-3.5855.8945c-1.0599.5952-1.9051,1.4546-2.5356,2.5782-.6306,1.1219-.9458,2.4845-.9458,4.0829,0,1.5666.3153,2.9276.9458,4.0846.6306,1.157,1.4758,2.0348,2.5356,2.63,1.0565.5952,2.2338.8928,3.5318.8928Z" style="fill: #fff;"/>
  </g>
</svg>